#define hand_width 17
#define hand_height 22
#define hand_x_hot 5
#define hand_y_hot 0
static char hand_bits[] = {
 0x60,0x00,0x00,0x90,0x00,0x00,0x90,0x00,0x00,0x90,0x00,0x00,0x90,0x00,0x00,
 0x90,0x03,0x00,0x90,0x1c,0x00,0x90,0x64,0x00,0x90,0xa4,0x00,0x97,0x24,0x01,
 0x19,0x20,0x01,0x11,0x00,0x01,0x12,0x00,0x01,0x04,0x00,0x01,0x04,0x00,0x01,
 0x08,0x00,0x01,0x08,0x80,0x00,0x10,0x80,0x00,0x10,0x80,0x00,0x20,0x40,0x00,
 0x20,0x40,0x00,0xe0,0x7f,0x00};
