#define fb_width 20
#define fb_height 20
static unsigned char fb_bits[] = {
0x00, 0x00, 0x00, 0x00, 0x0c, 0x03, 0x00, 0x8a, 0x02, 0x00, 
0x4d, 0x03, 0x80, 0xaa, 0x02, 0x40, 0x5d, 0x03, 0xa0, 0x28, 
0x02, 0x50, 0x1c, 0x03, 0x28, 0x00, 0x02, 0x1c, 0x00, 0x03, 
0x38, 0x00, 0x02, 0x70, 0x1c, 0x03, 0xe0, 0x38, 0x02, 0xc0, 
0x7d, 0x03, 0x80, 0xeb, 0x02, 0x00, 0xcf, 0x03, 0x00, 0x8e, 
0x03, 0x00, 0x0c, 0x03, 0x00, 0x00, 0x00, 0x00, 0x00, 0x00, };
