/* XPM */
static char * factory_xpm[] = {
/* width height ncolors cpp */
"16 15 5 1",
/* colors */
"  c none",
". c #bbbbbb",
"X c yellow",
"o c white",
"O c #666666",
/* pixels */
"     oooo   ooo ",
"    ooo  oooo   ",
"  OOOOO ooo     ",
"  O...OOOO      ",
"  O...O..O      ",
"  O...O..O      ",
" OO...O..OOOOOO ",
" O............O ",
" O..ooo..ooo..O ",
" O..ooX..ooX..O ",
" O............O ",
" O..ooo..ooo..O ",
" O..ooX..ooX..O ",
" O............O ",
" OOOOOOOOOOOOOO "};
